<?xml version="1.0" encoding="UTF-8"?>
<svg width="74" height="74" viewBox="0 0 74 74" fill="none" xmlns="http://www.w3.org/2000/svg">
<g filter="url(#filter0_d)">
<path d="M68 54C68 58.4183 64.4183 62 60 62L14 62C9.58172 62 6 58.4183 6 54L6 8.00001C5.99999 3.58173 9.58172 5.10709e-06 14 4.72083e-06L60 6.99382e-07C64.4183 3.13124e-07 68 3.58172 68 8L68 54Z" fill="#F89928"/>
<path d="M34.9337 41.3333L36.4114 39.8938L28.5787 32.0333L49.4004 32.0333L49.4004 29.9666L28.5787 29.9666L36.4114 22.1412L34.9337 20.6666L24.6004 30.9999L34.9337 41.3333Z" fill="white"/>
</g>
<defs>
<filter id="filter0_d" x="0.488889" y="0" width="73.0222" height="73.0222" filterUnits="userSpaceOnUse" color-interpolation-filters="sRGB">
<feFlood flood-opacity="0" result="BackgroundImageFix"/>
<feColorMatrix in="SourceAlpha" type="matrix" values="0 0 0 0 0 0 0 0 0 0 0 0 0 0 0 0 0 0 127 0" result="hardAlpha"/>
<feOffset dy="5.51111"/>
<feGaussianBlur stdDeviation="2.75556"/>
<feColorMatrix type="matrix" values="0 0 0 0 0 0 0 0 0 0.266667 0 0 0 0 0.482353 0 0 0 0.15 0"/>
<feBlend mode="normal" in2="BackgroundImageFix" result="effect1_dropShadow"/>
<feBlend mode="normal" in="SourceGraphic" in2="effect1_dropShadow" result="shape"/>
</filter>
</defs>
</svg>
