<?xml version="1.0" encoding="UTF-8"?>
<svg width="66" height="66" viewBox="0 0 66 66" fill="none" xmlns="http://www.w3.org/2000/svg">
<path d="M56.989 4.07068H32.5652C31.4859 4.07176 30.4511 4.50097 29.688 5.26413C28.9248 6.0273 28.4956 7.06205 28.4945 8.14133V28.4946H8.14127C7.06199 28.4956 6.02723 28.9249 5.26407 29.688C4.50091 30.4512 4.0717 31.4859 4.07062 32.5652V61.0597H61.0597V8.14133C61.0586 7.06205 60.6294 6.0273 59.8662 5.26413C59.1031 4.50097 58.0683 4.07176 56.989 4.07068ZM18.3179 56.9891V42.7418H26.4592V56.9891H18.3179ZM56.989 56.9891H30.5298V40.7065C30.5298 40.1667 30.3154 39.649 29.9337 39.2673C29.552 38.8856 29.0343 38.6712 28.4945 38.6712H16.2826C15.7428 38.6712 15.2251 38.8856 14.8434 39.2673C14.4617 39.649 14.2472 40.1667 14.2472 40.7065V56.9891H8.14127V32.5652H32.5652V8.14133H56.989V56.9891Z" fill="#00447B"/>
<path d="M36.6358 16.2826H40.7065V20.3532H36.6358V16.2826Z" fill="#00447B"/>
<path d="M48.8478 16.2826H52.9184V20.3532H48.8478V16.2826Z" fill="#00447B"/>
<path d="M36.6358 28.4945H40.7065V32.5652H36.6358V28.4945Z" fill="#00447B"/>
<path d="M48.8478 28.4945H52.9184V32.5652H48.8478V28.4945Z" fill="#00447B"/>
<path d="M36.6358 40.7064H40.7065V44.7771H36.6358V40.7064Z" fill="#00447B"/>
<path d="M48.8478 40.7064H52.9184V44.7771H48.8478V40.7064Z" fill="#00447B"/>
</svg>
