<svg width="58" height="58" viewBox="0 0 58 58" fill="none" xmlns="http://www.w3.org/2000/svg">
<path d="M53.5366 0.28186H29.1127C28.0334 0.282938 26.9987 0.712155 26.2355 1.47532C25.4723 2.23848 25.0431 3.27324 25.042 4.35251V24.7057H4.68881C3.60954 24.7068 2.57478 25.136 1.81162 25.8992C1.04846 26.6624 0.619242 27.6971 0.618164 28.7764V57.2709H57.6072V4.35251C57.6062 3.27324 57.1769 2.23848 56.4138 1.47532C55.6506 0.712155 54.6159 0.282938 53.5366 0.28186ZM14.8654 53.2003V38.953H23.0067V53.2003H14.8654ZM53.5366 53.2003H27.0774V36.9177C27.0774 36.3779 26.8629 35.8602 26.4812 35.4785C26.0995 35.0968 25.5819 34.8824 25.042 34.8824H12.8301C12.2903 34.8824 11.7726 35.0968 11.3909 35.4785C11.0092 35.8602 10.7948 36.3779 10.7948 36.9177V53.2003H4.68881V28.7764H29.1127V4.35251H53.5366V53.2003Z" fill="#FAFAFA"/>
</svg>
