<svg width="62" height="54" viewBox="0 0 62 54" fill="none" xmlns="http://www.w3.org/2000/svg">
<path d="M32.3409 0.717563C31.9797 0.435994 31.5349 0.283081 31.077 0.283081C30.619 0.283081 30.1742 0.435994 29.813 0.717563L0.56543 23.5234L3.09534 26.7229L6.6714 23.9345V49.1298C6.67355 50.2087 7.10311 51.2429 7.86604 52.0058C8.62897 52.7687 9.66311 53.1983 10.742 53.2004H51.4485C52.5275 53.1983 53.5616 52.7687 54.3245 52.0058C55.0875 51.2429 55.517 50.2087 55.5192 49.1298V23.9528L59.0952 26.7412L61.6251 23.5417L32.3409 0.717563ZM35.1659 49.1298H27.0246V32.8472H35.1659V49.1298ZM39.2366 49.1298V32.8472C39.2355 31.7679 38.8063 30.7332 38.0431 29.97C37.28 29.2068 36.2452 28.7776 35.1659 28.7765H27.0246C25.9454 28.7776 24.9106 29.2068 24.1474 29.97C23.3843 30.7332 22.9551 31.7679 22.954 32.8472V49.1298H10.742V20.7614L31.0953 4.90626L51.4485 20.7818V49.1298H39.2366Z" fill="#0D5C80"/>
</svg>
