<svg width="66" height="66" viewBox="0 0 66 66" fill="none" xmlns="http://www.w3.org/2000/svg">
<path d="M33.8108 4.50626C33.4497 4.22469 33.0048 4.07178 32.5469 4.07178C32.0889 4.07178 31.6441 4.22469 31.2829 4.50626L2.03534 27.3121L4.56525 30.5116L8.14131 27.7232V52.9185C8.14346 53.9974 8.57302 55.0316 9.33595 55.7945C10.0989 56.5574 11.133 56.987 12.212 56.9891H52.9184C53.9974 56.987 55.0315 56.5574 55.7944 55.7945C56.5574 55.0316 56.9869 53.9974 56.9891 52.9185V27.7415L60.5651 30.5299L63.0951 27.3304L33.8108 4.50626ZM36.6358 52.9185H28.4945V36.6359H36.6358V52.9185ZM40.7065 52.9185V36.6359C40.7054 35.5566 40.2762 34.5218 39.513 33.7587C38.7499 32.9955 37.7151 32.5663 36.6358 32.5652H28.4945C27.4153 32.5663 26.3805 32.9955 25.6174 33.7587C24.8542 34.5218 24.425 35.5566 24.4239 36.6359V52.9185H12.212V24.5501L32.5652 8.69496L52.9184 24.5705V52.9185H40.7065Z" fill="#00447B"/>
</svg>
