<?xml version="1.0" encoding="UTF-8"?>
<svg width="25" height="24" viewBox="0 0 25 24" fill="none" xmlns="http://www.w3.org/2000/svg">
<path d="M17.3046 8.27572C17.9011 8.27572 18.3846 7.79219 18.3846 7.19572C18.3846 6.59925 17.9011 6.11572 17.3046 6.11572C16.7081 6.11572 16.2246 6.59925 16.2246 7.19572C16.2246 7.79219 16.7081 8.27572 17.3046 8.27572Z" fill="#FAFAFA"/>
<path d="M12.5004 7.37842C11.5864 7.37842 10.6928 7.64946 9.93284 8.15728C9.17284 8.6651 8.58049 9.38688 8.2307 10.2313C7.88091 11.0758 7.78939 12.005 7.96771 12.9015C8.14603 13.798 8.58619 14.6215 9.23251 15.2678C9.87884 15.9141 10.7023 16.3543 11.5988 16.5326C12.4953 16.7109 13.4245 16.6194 14.269 16.2696C15.1134 15.9198 15.8352 15.3275 16.343 14.5675C16.8509 13.8075 17.1219 12.914 17.1219 11.9999C17.1219 10.7742 16.635 9.59872 15.7683 8.73202C14.9016 7.86532 13.7261 7.37842 12.5004 7.37842ZM12.5004 14.9999C11.9071 14.9999 11.327 14.824 10.8337 14.4943C10.3404 14.1647 9.95583 13.6961 9.72877 13.148C9.50171 12.5998 9.4423 11.9966 9.55805 11.4146C9.67381 10.8327 9.95953 10.2982 10.3791 9.8786C10.7986 9.45904 11.3332 9.17332 11.9151 9.05756C12.4971 8.94181 13.1003 9.00122 13.6485 9.22828C14.1966 9.45534 14.6652 9.83986 14.9948 10.3332C15.3245 10.8266 15.5004 11.4066 15.5004 11.9999C15.5004 12.7956 15.1843 13.5586 14.6217 14.1212C14.0591 14.6838 13.2961 14.9999 12.5004 14.9999Z" fill="#FAFAFA"/>
<path d="M12.5 4.6215C14.903 4.6215 15.188 4.6305 16.1368 4.674C16.7074 4.68077 17.2726 4.78555 17.8077 4.98375C18.196 5.13352 18.5486 5.36291 18.8428 5.65716C19.1371 5.95141 19.3665 6.304 19.5163 6.69225C19.7145 7.2274 19.8192 7.79262 19.826 8.36325C19.8695 9.312 19.8785 9.597 19.8785 12.0007C19.8785 14.4045 19.8695 14.688 19.826 15.6368C19.8192 16.2074 19.7145 16.7726 19.5163 17.3077C19.3665 17.696 19.1371 18.0486 18.8428 18.3428C18.5486 18.6371 18.196 18.8665 17.8077 19.0163C17.2726 19.2145 16.7074 19.3192 16.1368 19.326C15.188 19.3695 14.903 19.3785 12.5 19.3785C10.097 19.3785 9.812 19.3695 8.86325 19.326C8.29262 19.3192 7.7274 19.2145 7.19225 19.0163C6.804 18.8665 6.45141 18.6371 6.15716 18.3428C5.86291 18.0486 5.63352 17.696 5.48375 17.3077C5.28555 16.7726 5.18077 16.2074 5.174 15.6368C5.1305 14.688 5.1215 14.403 5.1215 12C5.1215 9.597 5.1305 9.312 5.174 8.36325C5.18077 7.79262 5.28555 7.2274 5.48375 6.69225C5.63352 6.304 5.86291 5.95141 6.15716 5.65716C6.45141 5.36291 6.804 5.13352 7.19225 4.98375C7.7274 4.78555 8.29262 4.68077 8.86325 4.674C9.812 4.6305 10.097 4.6215 12.5 4.6215ZM12.5 3C10.0557 3 9.749 3.0105 8.789 3.054C8.04258 3.06907 7.30412 3.21058 6.605 3.4725C6.00704 3.70372 5.46399 4.05733 5.01066 4.51066C4.55733 4.96399 4.20372 5.50704 3.9725 6.105C3.71049 6.80435 3.56899 7.54308 3.554 8.28975C3.5105 9.24975 3.5 9.555 3.5 12C3.5 14.445 3.5105 14.751 3.554 15.711C3.56907 16.4574 3.71058 17.1959 3.9725 17.895C4.20372 18.493 4.55733 19.036 5.01066 19.4893C5.46399 19.9427 6.00704 20.2963 6.605 20.5275C7.30435 20.7895 8.04308 20.931 8.78975 20.946C9.74975 20.9895 10.0557 21 12.5 21C14.9443 21 15.251 20.9895 16.211 20.946C16.9577 20.931 17.6964 20.7895 18.3958 20.5275C18.9937 20.2963 19.5368 19.9427 19.9901 19.4893C20.4434 19.036 20.797 18.493 21.0282 17.895C21.29 17.1956 21.4313 16.4569 21.446 15.7103C21.4895 14.7503 21.5 14.445 21.5 12C21.5 9.555 21.4895 9.249 21.446 8.289C21.4309 7.54258 21.2894 6.80412 21.0275 6.105C20.7963 5.50704 20.4427 4.96399 19.9893 4.51066C19.536 4.05733 18.993 3.70372 18.395 3.4725C17.6956 3.21075 16.9569 3.0695 16.2103 3.05475C15.2503 3.00975 14.945 3 12.5 3Z" fill="#FAFAFA"/>
</svg>
