<?xml version="1.0" encoding="UTF-8"?>
<svg width="25" height="24" viewBox="0 0 25 24" fill="none" xmlns="http://www.w3.org/2000/svg">
<path d="M20.1575 3.00002H4.8425C4.49354 2.99793 4.15764 3.13255 3.90671 3.37506C3.65579 3.61757 3.5098 3.9487 3.5 4.29752V19.65C3.50788 19.9995 3.65327 20.3317 3.90461 20.5747C4.15596 20.8176 4.49297 20.9516 4.8425 20.9475H20.1575C20.507 20.9516 20.844 20.8176 21.0954 20.5747C21.3467 20.3317 21.4921 19.9995 21.5 19.65V4.29752C21.4902 3.9487 21.3442 3.61757 21.0933 3.37506C20.8424 3.13255 20.5065 2.99793 20.1575 3.00002ZM8.8325 18.3075H6.1925V9.75002H8.8325V18.3075ZM7.5425 8.55752C7.13717 8.55764 6.74786 8.39923 6.45777 8.11615C6.16767 7.83306 5.99979 7.44774 5.99 7.04252C5.98266 6.83667 6.0178 6.63151 6.09322 6.43983C6.16864 6.24815 6.28273 6.07406 6.42839 5.92841C6.57404 5.78276 6.74813 5.66867 6.93981 5.59324C7.13149 5.51782 7.33665 5.48268 7.5425 5.49002C7.93463 5.51733 8.30181 5.69236 8.56993 5.9798C8.83805 6.26725 8.98716 6.64569 8.98716 7.03877C8.98716 7.43186 8.83805 7.8103 8.56993 8.09774C8.30181 8.38519 7.93463 8.56022 7.5425 8.58752V8.55752ZM18.86 18.255H16.25V14.07C16.25 13.0725 16.25 11.775 14.855 11.775C13.46 11.775 13.25 12.87 13.25 13.9725V18.21H10.58V9.75002H13.07V10.875H13.1225C13.3777 10.4318 13.7499 10.0672 14.1983 9.82122C14.6467 9.5752 15.1541 9.45717 15.665 9.48002C18.3575 9.48002 18.86 11.28 18.86 13.5675V18.255Z" fill="#FAFAFA"/>
</svg>
