<?xml version="1.0" encoding="UTF-8"?>
<svg width="25" height="24" viewBox="0 0 25 24" fill="none" xmlns="http://www.w3.org/2000/svg">
<path d="M12.5586 13.5C11.8169 13.5 11.0919 13.2801 10.4752 12.868C9.85852 12.456 9.37788 11.8703 9.09405 11.1851C8.81022 10.4998 8.73596 9.74584 8.88065 9.01841C9.02535 8.29098 9.3825 7.6228 9.90695 7.09835C10.4314 6.5739 11.0996 6.21675 11.827 6.07206C12.5544 5.92736 13.3084 6.00162 13.9937 6.28545C14.6789 6.56928 15.2646 7.04993 15.6766 7.66661C16.0887 8.2833 16.3086 9.00832 16.3086 9.75C16.3074 10.7442 15.9119 11.6973 15.2089 12.4003C14.5059 13.1033 13.5528 13.4988 12.5586 13.5ZM12.5586 7.5C12.1136 7.5 11.6786 7.63196 11.3086 7.8792C10.9386 8.12643 10.6502 8.47783 10.4799 8.88896C10.3096 9.3001 10.265 9.7525 10.3518 10.189C10.4386 10.6254 10.6529 11.0263 10.9676 11.341C11.2823 11.6557 11.6832 11.87 12.1196 11.9568C12.5561 12.0436 13.0085 11.999 13.4196 11.8287C13.8308 11.6584 14.1822 11.37 14.4294 11C14.6766 10.63 14.8086 10.195 14.8086 9.75C14.808 9.15345 14.5708 8.5815 14.1489 8.15967C13.7271 7.73784 13.1552 7.5006 12.5586 7.5Z" fill="#879FB3"/>
<path d="M12.5586 22.5L6.2316 15.0382C6.14369 14.9262 6.05669 14.8135 5.9706 14.7C4.88984 13.2763 4.30598 11.5374 4.3086 9.75C4.3086 7.56196 5.1778 5.46354 6.72497 3.91637C8.27215 2.36919 10.3706 1.5 12.5586 1.5C14.7466 1.5 16.8451 2.36919 18.3922 3.91637C19.9394 5.46354 20.8086 7.56196 20.8086 9.75C20.8112 11.5366 20.2276 13.2747 19.1474 14.6978L19.1466 14.7C19.1466 14.7 18.9216 14.9955 18.8879 15.0353L12.5586 22.5ZM7.1676 13.7963C7.1691 13.7963 7.3431 14.0272 7.38285 14.0767L12.5586 20.181L17.7411 14.0685C17.7741 14.0272 17.9496 13.7948 17.9504 13.794C18.8332 12.6308 19.3103 11.2103 19.3086 9.75C19.3086 7.95979 18.5974 6.2429 17.3316 4.97703C16.0657 3.71116 14.3488 3 12.5586 3C10.7684 3 9.0515 3.71116 7.78563 4.97703C6.51976 6.2429 5.8086 7.95979 5.8086 9.75C5.80703 11.2112 6.28469 12.6326 7.16835 13.7963H7.1676Z" fill="#879FB3"/>
</svg>
