<svg width="56" height="56" viewBox="0 0 56 56" fill="none" xmlns="http://www.w3.org/2000/svg">
<path d="M45.5001 50.75H45.2026C10.8151 48.7725 5.93257 19.7575 5.25007 10.9025C5.19507 10.214 5.27647 9.52144 5.4896 8.86447C5.70272 8.2075 6.04339 7.59903 6.49207 7.07394C6.94076 6.54885 7.48864 6.11745 8.10434 5.80447C8.72003 5.49148 9.39143 5.30306 10.0801 5.25H19.7226C20.4235 5.24932 21.1086 5.45914 21.6889 5.85228C22.2693 6.24543 22.7182 6.80377 22.9776 7.455L25.6376 14C25.8937 14.6362 25.9572 15.3336 25.8203 16.0057C25.6835 16.6777 25.3521 17.2947 24.8676 17.78L21.1401 21.5425C21.7223 24.8513 23.3069 27.9014 25.6794 30.2802C28.0519 32.6589 31.0978 34.2515 34.4051 34.8425L38.2026 31.08C38.6952 30.6008 39.318 30.2772 39.9933 30.1496C40.6686 30.022 41.3666 30.096 42.0001 30.3625L48.5976 33.005C49.239 33.2725 49.7862 33.725 50.1696 34.3047C50.5529 34.8844 50.755 35.565 50.7501 36.26V45.5C50.7501 46.8924 50.1969 48.2277 49.2124 49.2123C48.2278 50.1969 46.8925 50.75 45.5001 50.75ZM10.5001 8.75C10.0359 8.75 9.59082 8.93438 9.26263 9.26257C8.93444 9.59075 8.75007 10.0359 8.75007 10.5V10.64C9.55507 21 14.7176 45.5 45.3951 47.25C45.625 47.2642 45.8554 47.2329 46.0732 47.1578C46.291 47.0828 46.4918 46.9655 46.6641 46.8127C46.8365 46.6598 46.9769 46.4745 47.0775 46.2672C47.178 46.06 47.2367 45.835 47.2501 45.605V36.26L40.6526 33.6175L35.6301 38.605L34.7901 38.5C19.5651 36.5925 17.5001 21.3675 17.5001 21.21L17.3951 20.37L22.3651 15.3475L19.7401 8.75H10.5001Z" fill="white"/>
</svg>
