<?xml version="1.0" encoding="UTF-8"?>
<svg width="25" height="24" viewBox="0 0 25 24" fill="none" xmlns="http://www.w3.org/2000/svg">
<path d="M12.4998 1.5C10.0655 1.51658 7.71257 2.37849 5.84356 3.93828C3.97455 5.49807 2.70559 7.65882 2.25375 10.0509C1.80192 12.443 2.19529 14.9177 3.36657 17.0518C4.53785 19.1858 6.41426 20.8466 8.6748 21.75C8.52287 20.7558 8.52287 19.7442 8.6748 18.75L9.9123 13.5C9.71646 13.0245 9.61949 12.5142 9.6273 12C9.6273 10.545 10.4748 9.45 11.5248 9.45C11.715 9.44714 11.9036 9.48543 12.0776 9.56224C12.2517 9.63906 12.4071 9.75258 12.5331 9.89504C12.6592 10.0375 12.753 10.2055 12.8081 10.3876C12.8632 10.5697 12.8783 10.7615 12.8523 10.95C12.8523 11.85 12.2823 13.2 11.9823 14.445C11.9177 14.6772 11.9101 14.9215 11.9599 15.1573C12.0098 15.3931 12.1157 15.6133 12.2688 15.7995C12.4218 15.9857 12.6175 16.1322 12.8391 16.2267C13.0608 16.3212 13.302 16.361 13.5423 16.3425C15.4023 16.3425 16.8423 14.37 16.8423 11.535C16.861 10.9589 16.7594 10.3853 16.544 9.85061C16.3287 9.31598 16.0042 8.8321 15.5914 8.42986C15.1786 8.02762 14.6864 7.71584 14.1464 7.51442C13.6063 7.31299 13.0302 7.22634 12.4548 7.26C11.8405 7.23361 11.2272 7.33216 10.652 7.54966C10.0769 7.76717 9.55188 8.09912 9.10875 8.52542C8.66563 8.95172 8.31361 9.46351 8.07401 10.0298C7.83441 10.5961 7.71221 11.2051 7.7148 11.82C7.70646 12.6766 7.96895 13.5139 8.4648 14.2125C8.50086 14.2526 8.52654 14.3009 8.53962 14.3532C8.55269 14.4055 8.55275 14.4602 8.5398 14.5125C8.4573 14.8425 8.2773 15.5625 8.2473 15.705C8.2173 15.8475 8.0898 15.9375 7.8948 15.8475C6.5823 15.2325 5.7648 13.32 5.7648 11.775C5.7648 8.4675 8.1723 5.4225 12.7023 5.4225C16.3398 5.4225 19.1748 8.0175 19.1748 11.49C19.1748 15.105 16.9248 18.015 13.7223 18.015C13.2528 18.0313 12.7867 17.9301 12.3662 17.7206C11.9458 17.511 11.5844 17.1997 11.3148 16.815L10.6623 19.3125C10.3495 20.2831 9.91077 21.2085 9.3573 22.065C10.3771 22.3664 11.4364 22.513 12.4998 22.5C15.2846 22.5 17.9553 21.3938 19.9244 19.4246C21.8936 17.4555 22.9998 14.7848 22.9998 12C22.9998 9.21523 21.8936 6.54451 19.9244 4.57538C17.9553 2.60625 15.2846 1.5 12.4998 1.5Z" fill="#FAFAFA"/>
</svg>
