<?xml version="1.0" encoding="UTF-8"?>
<svg width="34" height="80" viewBox="0 0 34 80" fill="none" xmlns="http://www.w3.org/2000/svg">
<path id="quote-mark" d="M10.7625 57.703C9.78248 57.703 8.86782 57.3273 8.01848 56.576C7.20182 55.792 6.54848 54.7793 6.05848 53.538C5.60115 52.2967 5.37248 50.9737 5.37248 49.569C5.37248 47.413 5.74815 45.3877 6.49948 43.493C7.28348 41.5657 8.23082 39.9487 9.34148 38.642C10.4522 37.3027 11.5138 36.3553 12.5265 35.8H12.5755L14.2905 37.368V38.054C13.4738 38.8053 12.7062 39.8833 11.9875 41.288C11.2688 42.66 10.9095 44.3587 10.9095 46.384C10.9095 47.4293 11.0565 48.2787 11.3505 48.932C11.6445 49.5853 12.0855 50.304 12.6735 51.088C13.1635 51.7087 13.5228 52.2477 13.7515 52.705C13.9802 53.1623 14.0945 53.7177 14.0945 54.371C14.0945 55.351 13.7678 56.1513 13.1145 56.772C12.4938 57.3927 11.7098 57.703 10.7625 57.703ZM24.3845 57.703C23.4045 57.703 22.5062 57.3273 21.6895 56.576C20.8728 55.792 20.2195 54.7793 19.7295 53.538C19.2722 52.2967 19.0435 50.9737 19.0435 49.569C19.0435 47.413 19.4192 45.3877 20.1705 43.493C20.9545 41.5657 21.9018 39.9323 23.0125 38.593C24.1232 37.2537 25.1848 36.3227 26.1975 35.8H26.2465L27.9125 37.368V38.054C27.0958 38.8053 26.3282 39.8833 25.6095 41.288C24.8908 42.66 24.5315 44.3587 24.5315 46.384C24.5315 47.4293 24.6785 48.2787 24.9725 48.932C25.2665 49.5853 25.7075 50.304 26.2955 51.088C26.7855 51.7087 27.1448 52.2477 27.3735 52.705C27.6022 53.1623 27.7165 53.7177 27.7165 54.371C27.7165 55.351 27.3898 56.1513 26.7365 56.772C26.1158 57.3927 25.3318 57.703 24.3845 57.703Z" fill="#0D5C80"/>
</svg>
