<?xml version="1.0" encoding="UTF-8"?>
<svg width="25" height="24" viewBox="0 0 25 24" fill="none" xmlns="http://www.w3.org/2000/svg">
<path fill-rule="evenodd" clip-rule="evenodd" d="M7.31748 11.4346L10.82 13.1423C10.9686 13.2143 11.0914 13.3302 11.1716 13.4745C11.2519 13.6187 11.2857 13.7842 11.2685 13.9484C11.2513 14.1126 11.1838 14.2674 11.0754 14.3919C10.9669 14.5163 10.8228 14.6043 10.6625 14.6438L6.88248 15.5866C6.77135 15.6141 6.65562 15.6176 6.54303 15.5968C6.43044 15.576 6.32358 15.5314 6.22959 15.466C6.1356 15.4007 6.05664 15.316 5.99799 15.2177C5.93934 15.1193 5.90235 15.0096 5.88948 14.8958C5.7727 13.8856 5.88025 12.862 6.20448 11.8981C6.24104 11.7899 6.30027 11.6908 6.3782 11.6073C6.45613 11.5239 6.55098 11.458 6.6564 11.4141C6.76182 11.3703 6.87539 11.3494 6.98953 11.3529C7.10366 11.3564 7.21572 11.3843 7.31823 11.4346H7.31748Z" fill="#FAFAFA"/>
<path fill-rule="evenodd" clip-rule="evenodd" d="M8.72037 18.6452L11.3274 15.7502C11.4375 15.6274 11.5827 15.5415 11.7434 15.5042C11.904 15.4669 12.0723 15.48 12.2252 15.5417C12.3782 15.6034 12.5084 15.7108 12.5981 15.8491C12.6879 15.9875 12.7328 16.1501 12.7269 16.315L12.5911 20.2105C12.5872 20.325 12.5588 20.4373 12.5079 20.54C12.457 20.6426 12.3847 20.7332 12.2959 20.8056C12.2071 20.8781 12.1039 20.9307 11.9931 20.96C11.8824 20.9893 11.7666 20.9945 11.6536 20.9755C10.6519 20.8065 9.69923 20.4207 8.86212 19.8452C8.76782 19.7804 8.68845 19.6963 8.62931 19.5983C8.57017 19.5004 8.53264 19.391 8.51922 19.2773C8.5058 19.1637 8.5168 19.0486 8.55149 18.9395C8.58618 18.8305 8.64376 18.7302 8.72037 18.6452Z" fill="#FAFAFA"/>
<path fill-rule="evenodd" clip-rule="evenodd" d="M14.9018 14.7913L18.6068 15.9958C18.7156 16.031 18.8157 16.0891 18.9003 16.1661C18.9849 16.2432 19.0521 16.3374 19.0973 16.4425C19.1426 16.5476 19.1648 16.6611 19.1626 16.7755C19.1604 16.8899 19.1338 17.0025 19.0845 17.1058C18.6473 18.0227 18.015 18.8331 17.232 19.4803C17.1438 19.5533 17.0409 19.6065 16.9304 19.6365C16.8199 19.6665 16.7042 19.6726 16.5912 19.6542C16.4781 19.6359 16.3703 19.5937 16.2749 19.5303C16.1795 19.4669 16.0987 19.3839 16.038 19.2868L13.9725 15.9808C13.8848 15.8411 13.8422 15.6777 13.8507 15.5129C13.8591 15.3481 13.9181 15.19 14.0197 15.0599C14.1213 14.9299 14.2605 14.8343 14.4183 14.7863C14.5762 14.7382 14.745 14.74 14.9018 14.7913Z" fill="#FAFAFA"/>
<path fill-rule="evenodd" clip-rule="evenodd" d="M18.6701 12.4276L14.9238 13.5016C14.7654 13.5472 14.5968 13.5429 14.4409 13.4892C14.285 13.4356 14.1494 13.3353 14.0525 13.2019C13.9557 13.0685 13.9022 12.9085 13.8995 12.7436C13.8968 12.5788 13.9449 12.4171 14.0373 12.2806L16.2168 9.04959C16.2805 8.95497 16.3637 8.87502 16.4607 8.81507C16.5578 8.75512 16.6665 8.71655 16.7796 8.70193C16.8927 8.68731 17.0077 8.69698 17.1168 8.73028C17.2259 8.76359 17.3266 8.81978 17.4123 8.89509C18.1751 9.56736 18.7803 10.3996 19.1846 11.3326C19.2304 11.4376 19.2532 11.5511 19.2516 11.6656C19.25 11.7801 19.224 11.893 19.1753 11.9966C19.1266 12.1003 19.0563 12.1923 18.9692 12.2666C18.8821 12.341 18.7801 12.3958 18.6701 12.4276Z" fill="#FAFAFA"/>
<path fill-rule="evenodd" clip-rule="evenodd" d="M9.9173 3.33744C9.25522 3.51462 8.61077 3.75211 7.99205 4.04694C7.89225 4.09473 7.8034 4.16264 7.7311 4.24642C7.6588 4.33019 7.60461 4.42801 7.57193 4.53373C7.53925 4.63945 7.52879 4.75079 7.5412 4.86075C7.55361 4.97071 7.58863 5.07691 7.64405 5.17269L11.3056 11.5147C11.3937 11.6682 11.53 11.7882 11.6934 11.8562C11.8569 11.9242 12.0382 11.9362 12.2091 11.8904C12.3801 11.8446 12.5311 11.7436 12.6387 11.6031C12.7463 11.4626 12.8044 11.2904 12.8041 11.1134V3.78969C12.8042 3.67905 12.7814 3.56958 12.7372 3.46815C12.693 3.36673 12.6283 3.27555 12.5471 3.20033C12.466 3.1251 12.3702 3.06747 12.2657 3.03105C12.1612 2.99463 12.0504 2.98021 11.9401 2.98869C11.2566 3.04288 10.5795 3.15962 9.9173 3.33744Z" fill="#FAFAFA"/>
</svg>
