<?xml version="1.0" encoding="UTF-8"?>
<svg width="25" height="24" viewBox="0 0 25 24" fill="none" xmlns="http://www.w3.org/2000/svg">
<path d="M22.5571 6.9449C22.4376 6.50093 22.2036 6.09614 21.8785 5.77103C21.5534 5.44592 21.1486 5.2119 20.7046 5.0924C19.0696 4.6499 12.4996 4.6499 12.4996 4.6499C12.4996 4.6499 5.92959 4.6499 4.29459 5.0924C3.85062 5.2119 3.44582 5.44592 3.12071 5.77103C2.79561 6.09614 2.56159 6.50093 2.44209 6.9449C2.1368 8.61235 1.98865 10.3048 1.99959 11.9999C1.98865 13.695 2.1368 15.3875 2.44209 17.0549C2.56159 17.4989 2.79561 17.9037 3.12071 18.2288C3.44582 18.5539 3.85062 18.7879 4.29459 18.9074C5.92959 19.3499 12.4996 19.3499 12.4996 19.3499C12.4996 19.3499 19.0696 19.3499 20.7046 18.9074C21.1486 18.7879 21.5534 18.5539 21.8785 18.2288C22.2036 17.9037 22.4376 17.4989 22.5571 17.0549C22.8624 15.3875 23.0105 13.695 22.9996 11.9999C23.0105 10.3048 22.8624 8.61235 22.5571 6.9449ZM10.3996 15.1499V8.8499L15.8521 11.9999L10.3996 15.1499Z" fill="#FAFAFA"/>
</svg>
