<?xml version="1.0" encoding="UTF-8"?>
<svg width="64" height="64" viewBox="0 0 64 64" fill="none" xmlns="http://www.w3.org/2000/svg">
<g opacity="0.75">
<path d="M58.8195 18.5199C58.5009 17.336 57.8768 16.2565 57.0099 15.3896C56.1429 14.5226 55.0635 13.8986 53.8796 13.5799C49.5196 12.3999 31.9996 12.3999 31.9996 12.3999C31.9996 12.3999 14.4796 12.3999 10.1196 13.5799C8.93563 13.8986 7.85618 14.5226 6.98922 15.3896C6.12227 16.2565 5.49822 17.336 5.17955 18.5199C4.36544 22.9664 3.97038 27.4796 3.99955 31.9999C3.97038 36.5203 4.36544 41.0334 5.17955 45.4799C5.49822 46.6638 6.12227 47.7433 6.98922 48.6102C7.85618 49.4772 8.93563 50.1012 10.1196 50.4199C14.4796 51.5999 31.9996 51.5999 31.9996 51.5999C31.9996 51.5999 49.5196 51.5999 53.8796 50.4199C55.0635 50.1012 56.1429 49.4772 57.0099 48.6102C57.8768 47.7433 58.5009 46.6638 58.8195 45.4799C59.6337 41.0334 60.0287 36.5203 59.9995 31.9999C60.0287 27.4796 59.6337 22.9664 58.8195 18.5199ZM26.3996 40.3999V23.5999L40.9395 31.9999L26.3996 40.3999Z" fill="#FAFAFA"/>
</g>
</svg>
