<?xml version="1.0" encoding="UTF-8"?>
<svg width="45" height="45" viewBox="0 0 45 45" fill="none" xmlns="http://www.w3.org/2000/svg">
<path d="M14.2832 23.875C13.1954 23.875 12.132 23.5524 11.2276 22.9481C10.3231 22.3437 9.61815 21.4848 9.20187 20.4798C8.78559 19.4748 8.67667 18.3689 8.88889 17.302C9.10111 16.2351 9.62493 15.2551 10.3941 14.4859C11.1633 13.7167 12.1433 13.1929 13.2102 12.9807C14.2771 12.7685 15.383 12.8774 16.388 13.2937C17.393 13.7099 18.2519 14.4149 18.8563 15.3194C19.4606 16.2238 19.7832 17.2872 19.7832 18.375C19.7814 19.8331 19.2013 21.231 18.1703 22.2621C17.1392 23.2931 15.7413 23.8732 14.2832 23.875ZM14.2832 15.625C13.7393 15.625 13.2076 15.7863 12.7554 16.0885C12.3032 16.3906 11.9507 16.8201 11.7425 17.3226C11.5344 17.8251 11.4799 18.3781 11.586 18.9115C11.6922 19.4449 11.9541 19.935 12.3387 20.3195C12.7233 20.7041 13.2133 20.9661 13.7467 21.0722C14.2802 21.1783 14.8331 21.1238 15.3356 20.9157C15.8381 20.7075 16.2676 20.3551 16.5697 19.9028C16.8719 19.4506 17.0332 18.9189 17.0332 18.375C17.0325 17.6459 16.7425 16.9468 16.2269 16.4313C15.7114 15.9157 15.0123 15.6257 14.2832 15.625Z" fill="white"/>
<path d="M20.9094 9.64375C21.0689 9.47738 23.4724 7.00513 24.8804 5.59713C25.0726 5.40483 25.2035 5.15985 25.2565 4.89317C25.3096 4.62648 25.2823 4.35006 25.1783 4.09885C25.0742 3.84764 24.898 3.63291 24.672 3.48182C24.4459 3.33073 24.1801 3.25006 23.9082 3.25C16.7747 3.25 3.28323 6.41112 3.28323 18.375C3.27951 20.0709 3.67322 21.744 4.43279 23.2603C5.19235 24.7766 6.29664 26.0938 7.6571 27.1063C6.34096 28.4625 5.01728 29.8114 3.6861 31.1529C3.49387 31.3452 3.36296 31.5901 3.30993 31.8568C3.2569 32.1235 3.28413 32.3999 3.38817 32.6511C3.49222 32.9024 3.66841 33.1171 3.89447 33.2682C4.12054 33.4193 4.38632 33.4999 4.65823 33.5C11.7917 33.5 25.2832 30.3389 25.2832 18.375C25.2871 16.6791 24.8934 15.0059 24.1338 13.4896C23.3742 11.9733 22.2699 10.6562 20.9094 9.64375ZM13.879 29.0904C12.0533 29.7297 10.1678 30.1835 8.2511 30.4447C8.47385 30.2165 12.0585 26.4504 12.0585 26.4504L10.4442 25.6158C9.11334 24.9323 7.99712 23.8944 7.21876 22.6167C6.44039 21.339 6.03012 19.8711 6.03323 18.375C6.03323 13.3329 8.94548 9.72762 14.6861 7.65962C16.5122 7.02017 18.3982 6.56642 20.3154 6.30525C20.0032 6.62425 16.5066 10.2996 16.5066 10.2996L18.1236 11.1343C19.4541 11.818 20.57 12.856 21.3481 14.1336C22.1262 15.4113 22.5363 16.8791 22.5332 18.375C22.5332 23.4171 19.621 27.0224 13.8804 29.0904H13.879Z" fill="white"/>
<path d="M41.7832 23.875L34.9082 17L28.0332 23.875L29.9761 25.8206L33.5332 22.2717V26.625C33.5296 29.9059 32.2246 33.0515 29.9046 35.3714C27.5847 37.6914 24.4391 38.9964 21.1582 39H17.0332V41.75H21.1582C25.1683 41.7456 29.0128 40.1507 31.8484 37.3152C34.6839 34.4796 36.2788 30.6351 36.2832 26.625V22.269L39.839 25.8192L41.7832 23.875Z" fill="white"/>
</svg>
